# Blender 4.5.3 LTS
# www.blender.org
mtllib Cube.mtl
o Cube
v 0.640692 0.823619 -1.382449
v 0.504519 -1.161604 -1.181583
v 1.357602 0.962832 0.479448
v 1.221429 -1.022391 0.680314
v -1.221429 1.022391 -0.680314
v -1.357602 -0.962832 -0.479448
v -0.504519 1.161604 1.181583
v -0.640692 -0.823619 1.382449
vn 0.0681 0.9926 -0.1004
vn 0.3585 0.0696 0.9309
vn -0.9311 0.0994 0.3511
vn -0.0681 -0.9926 0.1004
vn 0.9311 -0.0994 -0.3511
vn -0.3585 -0.0696 -0.9309
vt 0.625000 0.500000
vt 0.875000 0.500000
vt 0.875000 0.750000
vt 0.625000 0.750000
vt 0.375000 0.750000
vt 0.625000 1.000000
vt 0.375000 1.000000
vt 0.375000 0.000000
vt 0.625000 0.000000
vt 0.625000 0.250000
vt 0.375000 0.250000
vt 0.125000 0.500000
vt 0.375000 0.500000
vt 0.125000 0.750000
s 0
usemtl Material
f 1/1/1 5/2/1 7/3/1 3/4/1
f 4/5/2 3/4/2 7/6/2 8/7/2
f 8/8/3 7/9/3 5/10/3 6/11/3
f 6/12/4 2/13/4 4/5/4 8/14/4
f 2/13/5 1/1/5 3/4/5 4/5/5
f 6/11/6 5/10/6 1/1/6 2/13/6
